<svg id="Layer_1" data-name="Layer 1" xmlns="http://www.w3.org/2000/svg" viewBox="0 0 680 169"><defs><style>.cls-1{fill:#fff;}</style></defs><title>LaunchCode_white</title><path class="cls-1" d="M28.7,68.63v67.8H17V68.63Z"/><path class="cls-1" d="M83.6,88.61H95v47.82H83.8l-.58-7c-2.72,5.63-10.18,8.34-15.52,8.44-14.16.1-24.64-8.63-24.64-25.41,0-16.49,11-25.12,24.93-25,6.4,0,12.51,3,15.23,7.76ZM54.89,112.47c0,9.12,6.3,14.55,14.16,14.55,18.62,0,18.62-29,0-29C61.2,98,54.89,103.35,54.89,112.47Z"/><path class="cls-1" d="M121.34,88.61v25c0,7.28,4,12.8,11.54,12.8,7.28,0,12.22-6.11,12.22-13.39V88.61h11.74v47.92H146.27l-.78-6.5c-4.95,4.85-9.51,7.18-16.2,7.18-11.45,0-19.79-8.63-19.79-23.47V88.61Z"/><path class="cls-1" d="M209.12,136.43v-25c0-7.27-4-12.8-11.54-12.8-7.27,0-12.22,6.11-12.22,13.39v24.44H173.62V88.51h10.57L185,95c4.85-4.75,9.7-7.18,15.71-7.18,11.25,0,20.27,8.44,20.27,23.47v25.12Z"/><path class="cls-1" d="M278.77,130.32a24.61,24.61,0,0,1-18.43,7.57c-13.87,0-25.41-8.34-25.41-25.32s11.54-25.32,25.41-25.32a22.71,22.71,0,0,1,17.27,7.08l-7.47,7.86a14.53,14.53,0,0,0-9.6-3.78c-8,0-13.77,5.82-13.77,14.16,0,9.12,6.21,14,13.58,14a14.38,14.38,0,0,0,10.48-4Z"/><path class="cls-1" d="M302.43,68.53V95.11a17.66,17.66,0,0,1,14.94-7.18C331,87.93,337,97.14,337,111.21v25.22H325.13V111.31c0-8.73-4.56-12.42-10.86-12.42-7,0-11.83,5.92-11.83,13.09v24.44H290.6V68.53Z"/><path class="cls-1" d="M473.15,130.32a24.6,24.6,0,0,1-18.43,7.57c-13.87,0-25.41-8.34-25.41-25.32s11.54-25.32,25.41-25.32A22.71,22.71,0,0,1,472,94.33l-7.47,7.86a14.53,14.53,0,0,0-9.6-3.78c-8,0-13.77,5.82-13.77,14.16,0,9.12,6.21,14,13.58,14a14.38,14.38,0,0,0,10.48-4Z"/><path class="cls-1" d="M533.48,112.57c0,13.77-9.41,24.93-24.93,24.93s-24.83-11.16-24.83-24.93,9.51-24.93,24.73-24.93S533.48,98.89,533.48,112.57Zm-37.93,0c0,7.28,4.36,14.07,13,14.07s13-6.79,13-14.07-5-14.16-13-14.16C500,98.41,495.56,105.39,495.56,112.57Z"/><path class="cls-1" d="M597.89,68.63v67.8H586.83l-.78-6.6c-3.69,5.72-9.6,7.66-15.42,7.66-14.07,0-24.64-9.31-24.64-25,0-16.49,10.38-25,24.35-25,5,0,12.9,2.72,15.71,7.66V68.63Zm-40.06,43.84c0,8.34,6,14.07,13.58,14.07s13.87-5.43,13.87-14.07a13.65,13.65,0,0,0-13.87-14C563.84,98.5,557.83,103.84,557.83,112.47Z"/><path class="cls-1" d="M625.92,116.74c.78,5.92,5.92,10.19,14.26,10.19,4.37,0,10.09-1.65,12.8-4.46l7.57,7.47c-5,5.24-13.29,7.76-20.56,7.76-16.49,0-26.29-10.18-26.29-25.51,0-14.55,9.89-25,25.41-25,16,0,26,9.89,24.15,29.58Zm26-9.8c-.78-6.21-5.63-9.31-12.42-9.31-6.4,0-11.64,3.1-13.39,9.31Z"/><path class="cls-1" d="M351.47,145.61h71.11v10.24H351.47Z"/><path class="cls-1" d="M386.67,45.11a8.45,8.45,0,1,0,8.44,8.45,8.46,8.46,0,0,0-8.44-8.45m0,12.37a3.91,3.91,0,1,1,3.91-3.92,3.92,3.92,0,0,1-3.91,3.92"/><path class="cls-1" d="M416.11,72.05l-8.4-12.49c.88-11.18-.73-26.24-19.34-44.38a2.46,2.46,0,0,0-1.71-.65h0a2.46,2.46,0,0,0-1.71.65c-18.61,18.13-20.22,33.19-19.34,44.38l-8.4,12.49a1.73,1.73,0,0,0-.24,1.42l6.51,23.79a2.18,2.18,0,0,0,1.89,1.48l.32,0a2.36,2.36,0,0,0,2-1l6.51-9.9,10.45,32.9a2.19,2.19,0,0,0,4.06,0l10.45-32.9,6.51,9.9a2.36,2.36,0,0,0,2,1l.32,0a2.19,2.19,0,0,0,1.89-1.48l6.51-23.79a1.72,1.72,0,0,0-.24-1.42Zm-43.7,10.58-5.84,8.88-5-18.2,5.64-8.39,5.36,17.49a1.71,1.71,0,0,0-.18.22Zm14.25,30.68-7.09-23.14h3.51l3.59,11.71,3.59-11.71h3.5l-7.1,23.14Zm12.47-41L397.7,77h0l-2.63,8.54-.24.77H378.48l-.24-.77L375.61,77h0l-1.42-4.64-4-13.14,0-.07c-.74-10.06.71-23.47,16.53-39.68h0c15.83,16.2,17.27,29.62,16.53,39.68l0,.07-4,13.14Zm7.62,19.18-5.84-8.88a1.83,1.83,0,0,0-.18-.22l5.36-17.49,5.64,8.39-5,18.2Z"/></svg>